<svg id="Layer_1" data-name="Layer 1" xmlns="http://www.w3.org/2000/svg" viewBox="0 0 3917 742"><defs><style>.cls-1{fill:#f7931e;}.cls-2{fill:#f15a24;}.cls-3{fill:#0071bc;}</style></defs><path class="cls-1" d="M1612,133.46h0a23.68,23.68,0,0,0-36,4.1l-73.77,111.28,107.53-79.13A23.67,23.67,0,0,0,1612,133.46Z"/><path class="cls-2" d="M1672.71,233.75h0a23.68,23.68,0,0,0-31.5-17.93L1516,262.16l133.51-.47A23.67,23.67,0,0,0,1672.71,233.75Z"/><path class="cls-2" d="M1507.47,77.2h0a23.66,23.66,0,0,1,19.6,30.48L1487.55,235.2l-6.73-133.33A23.67,23.67,0,0,1,1507.47,77.2Z"/><path class="cls-3" d="M1067.77,264.3V665h400.69V264.3Zm270.85,337.1-71.68-83.85-37.77,45.31,11.14,57.56-82.61,16L1108,379.23l82.61-16,21.26,109.9,70.32-127.62,102.42-19.81-71.87,123.65,123.49,133.16Z"/><path class="cls-3" d="M1715.55,511.34c0,70.43-44.91,105.07-113.45,105.07S1489,581.77,1489,511.34s44.55-105.08,113.07-105.08S1715.55,440.9,1715.55,511.34Zm-150.76-10.67v21.71c0,26.65,10.66,42.64,37.31,42.64s37.69-16,37.69-42.64V500.67c0-26.64-11-43-37.69-43S1564.79,474,1564.79,500.67Z"/><path class="cls-3" d="M1884.66,410.83H1973l-74.24,81.09,76.15,119.93h-86.05l-42.26-68.91-26.27,25.51v43.4h-75.77V335.44h75.77V487.73Z"/><path class="cls-3" d="M2195.38,511.34c0,70.43-44.91,105.07-113.45,105.07s-113.07-34.64-113.07-105.07,44.55-105.08,113.07-105.08S2195.38,440.9,2195.38,511.34Zm-150.76-10.67v21.71c0,26.65,10.66,42.64,37.31,42.64s37.69-16,37.69-42.64V500.67c0-26.64-11-43-37.69-43S2044.62,474,2044.62,500.67Z"/><path class="cls-3" d="M2369.05,410.44V474h-24.36c-32.75,0-44.55,17.89-44.55,48.35v89.47h-75.76v-201h62l5,30.45c9.51-24,31.22-35.4,55.2-35.4C2360.67,405.88,2369.05,410.44,2369.05,410.44Z"/><path class="cls-3" d="M2538.51,410.83h88.32l-74.23,81.09,76.14,119.93h-86l-42.25-68.91-26.27,25.51v43.4h-75.76V335.44h75.76V487.73Z"/><path class="cls-3" d="M2849.23,511.34c0,70.43-44.92,105.07-113.45,105.07S2622.7,581.77,2622.7,511.34s44.55-105.08,113.08-105.08S2849.23,440.9,2849.23,511.34Zm-150.76-10.67v21.71c0,26.65,10.66,42.64,37.31,42.64s37.69-16,37.69-42.64V500.67c0-26.64-11-43-37.69-43S2698.47,474,2698.47,500.67Z"/></svg>