<?xml version="1.0" encoding="utf-8"?>
<!-- Generator: Adobe Illustrator 23.1.1, SVG Export Plug-In . SVG Version: 6.00 Build 0)  -->
<svg version="1.1" id="Capa_1" xmlns="http://www.w3.org/2000/svg" xmlns:xlink="http://www.w3.org/1999/xlink" x="0px" y="0px"
	 viewBox="0 0 512 512" style="enable-background:new 0 0 512 512;" xml:space="preserve">
<style type="text/css">
	.st0{fill:url(#SVGID_1_);}
	.st1{fill:url(#SVGID_2_);}
	.st2{font-family:'MyriadPro-Regular';}
	.st3{font-size:70px;}
</style>
<linearGradient id="SVGID_1_" gradientUnits="userSpaceOnUse" x1="255.9911" y1="33.0111" x2="255.9911" y2="483.0131" gradientTransform="matrix(1 0 0 -1 1.436949e-03 514.0192)">
	<stop  offset="0" style="stop-color:#026E08"/>
	<stop  offset="1" style="stop-color:#00BE0A"/>
</linearGradient>
<path class="st0" d="M467,181H45c-8.3,0-15,6.7-15,15v270c0,8.3,6.7,15,15,15h422c8.3,0,15-6.7,15-15V196
	C482,187.7,475.3,181,467,181L467,181z M151,151c8.3,0,15-6.7,15-15s-6.7-15-15-15c-16.6,0-30-13.5-30-30s13.4-30,30-30
	c8.3,0,16,3.3,21.7,9.3l72.4,76c7.4,7.8,17.6,4.4,21.7,0l72.4-76c5.7-6,13.4-9.3,21.7-9.3c16.6,0,30,13.5,30,30s-13.4,30-30,30
	c-8.3,0-15,6.7-15,15s6.7,15,15,15c33.1,0,60-26.9,60-60s-26.9-60-60-60c-16.4,0-32.2,6.8-43.4,18.6c-52.1,54.6-60.4,63.4-61.5,64.5
	c0,0,0,0,0,0c0,0,0,0,0,0c0,0,0,0,0,0.1c0,0,0,0,0,0c0,0,0,0,0,0c0,0,0,0,0,0c0,0,0,0,0,0c0,0,0,0,0,0c0,0,0,0,0,0c0,0,0,0,0,0
	c0,0,0,0,0,0c0,0,0,0,0,0c0,0,0,0,0,0c0,0,0,0,0,0c0,0,0,0,0,0c0,0,0,0,0,0c0,0,0,0,0,0c0,0,0,0,0,0c0,0,0,0,0,0l0,0c0,0,0,0,0,0
	c0,0,0,0,0,0c0,0,0,0-0.1-0.1c0,0,0,0,0,0l0,0c0,0,0,0,0,0c-1.1-1.1-9.4-9.8-61.4-64.5C183.2,37.8,167.4,31,151,31
	c-33.1,0-60,26.9-60,60S117.9,151,151,151L151,151z"/>
<linearGradient id="SVGID_2_" gradientUnits="userSpaceOnUse" x1="255.9911" y1="93.0101" x2="255.9911" y2="393.0111" gradientTransform="matrix(1 0 0 -1 1.436949e-03 514.0192)">
	<stop  offset="0" style="stop-color:#4DEC55"/>
	<stop  offset="1" style="stop-color:#B6F0B9"/>
</linearGradient>
<path class="st1" d="M293.2,262c-16.5,0-28.7,7.5-37.2,17c-8.5-9.5-20.7-17-37.2-17c-29.3,0-52.2,24.3-52.2,55.4
	c0,32.6,25.4,54.1,60.5,83.7c6,5.1,12.4,10.5,19.1,16.3c2.8,2.4,6.3,3.7,9.8,3.7s7-1.2,9.8-3.7c6.8-5.9,13.2-11.3,19.2-16.4
	c36.4-30.8,60.4-51.1,60.4-83.6C345.4,286.3,322.5,262,293.2,262L293.2,262z M497,121H15c-8.3,0-15,6.7-15,15v60c0,8.3,6.7,15,15,15
	h482c8.3,0,15-6.7,15-15v-60C512,127.7,505.3,121,497,121z"/>
<text transform="matrix(1 0 0 1 190 351)" class="st2 st3">DAD</text>
</svg>
