<?xml version="1.0" encoding="utf-8"?>
<!-- Generator: Adobe Illustrator 23.1.1, SVG Export Plug-In . SVG Version: 6.00 Build 0)  -->
<svg version="1.1" id="Layer_1" xmlns="http://www.w3.org/2000/svg" xmlns:xlink="http://www.w3.org/1999/xlink" x="0px" y="0px"
	 viewBox="0 0 512 512" style="enable-background:new 0 0 512 512;" xml:space="preserve">
<style type="text/css">
	.st0{fill:#009345;}
	.st1{fill:#37B34A;}
</style>
<title>pay secure</title>
<path class="st0" d="M174.9,184.1c10.3,0,18.7-8.4,18.7-18.7v-21.8c0-10.3-8.4-18.7-18.7-18.7h-32.7c-10.3,0-18.7,8.4-18.7,18.7
	v21.8c0,10.3,8.4,18.7,18.7,18.7L174.9,184.1z M139.1,146.8v-3.1c0-1.7,1.4-3.1,3.1-3.1h3.1v6.3L139.1,146.8z M145.4,162.3v6.3h-3.1
	c-1.7,0-3.1-1.4-3.1-3.1v-3.1L145.4,162.3z M160.9,168.6v-6.3h17.2v3.1c0,1.7-1.4,3.1-3.1,3.1L160.9,168.6z M160.9,146.8v-6.3h14
	c1.7,0,3.1,1.4,3.1,3.1v3.1L160.9,146.8z"/>
<path class="st0" d="M142.2,212.2c-4.3,0-7.8,3.5-7.8,7.8c0,4.3,3.5,7.8,7.8,7.8h32.7c4.3,0,7.8-3.5,7.8-7.8c0-4.3-3.5-7.8-7.8-7.8
	H142.2z"/>
<path class="st0" d="M202.2,212.2h-5.4c-4.3,0-7.8,3.5-7.8,7.8c0,4.3,3.5,7.8,7.8,7.8h5.4c4.3,0,7.8-3.5,7.8-7.8
	C210,215.7,206.5,212.2,202.2,212.2C202.2,212.2,202.2,212.2,202.2,212.2z"/>
<path class="st0" d="M153.1,244.9h-10.9c-4.3,0-7.8,3.5-7.8,7.8c0,4.3,3.5,7.8,7.8,7.8c0,0,0,0,0,0h10.9c4.3,0,7.8-3.5,7.8-7.8
	C160.9,248.4,157.4,244.9,153.1,244.9C153.1,244.9,153.1,244.9,153.1,244.9z"/>
<path class="st0" d="M202.2,244.9h-21.8c-4.3,0-7.8,3.5-7.8,7.8c0,4.3,3.5,7.8,7.8,7.8c0,0,0,0,0,0h21.8c4.3,0,7.8-3.5,7.8-7.8
	C210,248.4,206.5,244.9,202.2,244.9C202.2,244.9,202.2,244.9,202.2,244.9z"/>
<path class="st0" d="M341.6,132c-8.6-3.2-18.2-1.2-24.9,5c-9.7-9.1-25-8.5-34,1.2c-9.1,9.7-8.5,25,1.2,34c4.5,4.1,10.3,6.4,16.4,6.4
	l0,0c6.1,0,11.9-2.3,16.4-6.5c9.7,9.1,25,8.6,34.1-1.2s8.6-25-1.2-34.1C347.2,134.8,344.5,133.1,341.6,132z M341.6,154.6
	c0,4.7-3.9,8.6-8.6,8.6s-8.6-3.9-8.6-8.6c0-4.7,3.9-8.6,8.6-8.6C337.7,146,341.6,149.8,341.6,154.6L341.6,154.6z M308.9,154.6
	c0,4.7-3.9,8.6-8.6,8.6s-8.6-3.9-8.6-8.6c0-4.7,3.9-8.6,8.6-8.6C305,146,308.9,149.8,308.9,154.6L308.9,154.6z"/>
<path class="st0" d="M410.2,212.2L410.2,212.2c-8.7-0.4-17.3-1.4-25.9-3.1v-70.8c-0.1-22.3-18.1-40.4-40.5-40.5H136.8
	c-22.3,0.1-40.4,18.1-40.5,40.5v114.5c0.1,22.3,18.1,40.4,40.5,40.5h79.4v8.1c0,0.9,0.1,1.8,0.2,2.7c1.4,9.7,16.1,95.9,99.7,124.5
	c3.9,1.3,8.2,1.3,12.1,0c83.6-28.5,98.2-114.8,99.6-124.5c0.1-0.9,0.2-1.8,0.2-2.7v-70.4C428.1,220.9,420.2,212.6,410.2,212.2z
	 M368.8,205.2c-12.6-3.7-24.5-9.8-34.9-17.8c-6.9-5.5-16.7-5.5-23.6,0C286,207,252.1,211.3,234,212.2c-10,0.5-17.8,8.7-17.8,18.7
	v46.7h-79.4c-13.8,0-24.9-11.2-24.9-24.9V138.2c0-13.8,11.2-24.9,24.9-24.9h207.1c13.8,0,24.9,11.2,24.9,24.9L368.8,205.2z
	 M231.8,230.9c0-1.7,1.3-3.1,2.9-3.2c19.9-0.9,57.5-5.8,85.4-28.2c0.6-0.5,1.3-0.7,2-0.7c0.8,0,1.5,0.3,2.1,0.8
	c27.8,22.3,65.4,27.2,85.3,28.1c1.7,0.1,3,1.5,3,3.2v70.4c0,0.2,0,0.3,0,0.5c-1.3,8.8-14.5,86.4-89.3,112c-0.6,0.2-1.4,0.2-2,0
	c-74.8-25.5-88-103.2-89.3-111.9c0-0.2,0-0.3,0-0.5L231.8,230.9z"/>
<path id="Shape" class="st1" d="M399,235.4c-26.2-2-51.6-10.4-73.8-24.4c-1.9-1.3-4.3-1.3-6.2,0c-22.2,14.1-47.6,22.5-73.8,24.5
	c-2.8,0.3-4.9,2.6-4.9,5.4v59.4c0,0.3,0,0.6,0.1,0.8c2,12.9,15,78.3,79.8,102.6c1.2,0.5,2.6,0.5,3.8,0
	c66.2-24.9,78.6-94.8,79.8-102.6c0-0.3,0.1-0.5,0.1-0.8v-59.4C403.9,238.1,401.8,235.8,399,235.4z M393,299.8
	c-1.4,8.8-13.1,70-70.9,92.9c-57.7-22.9-69.4-84.1-70.9-93v-54c25.1-2.6,49.3-10.7,70.8-23.8c21.6,13.1,45.8,21.2,70.9,23.8V299.8z"
	/>
<path class="st1" d="M322.1,222c-21.6,13.1-45.8,21.2-70.9,23.8v54c1.4,8.8,13.2,70.1,70.9,93c57.7-22.9,69.5-84.1,70.9-92.9v-54.1
	C367.9,243.2,343.7,235.1,322.1,222z M364.5,272.5l-49,60c-1,1.2-2.4,1.9-4,2h-0.3c-1.4,0-2.8-0.6-3.9-1.6L285.5,311
	c-2.1-2.1-2.1-5.6,0-7.7s5.6-2.1,7.7,0l17.5,17.5l45.2-55.2c1.9-2.3,5.3-2.7,7.7-0.8C366,266.7,366.3,270.2,364.5,272.5L364.5,272.5
	z"/>
</svg>
