<svg id="Layer_1" enable-background="new 0 0 512 512" height="512" viewBox="0 0 512 512" width="512" xmlns="http://www.w3.org/2000/svg"><g><path d="m368 504.5h-224c-16.569 0-30-13.431-30-30v-437c0-16.569 13.431-30 30-30h224c16.569 0 30 13.431 30 30v437c0 16.569-13.431 30-30 30z" fill="#bdf9ff"/><path d="m368 7.5h-30c16.569 0 30 13.431 30 30v437c0 16.569-13.431 30-30 30h30c16.569 0 30-13.431 30-30v-437c0-16.569-13.431-30-30-30z" fill="#8cf2ff"/><path d="m398 440v34.5c0 16.569-13.431 30-30 30h-224c-16.569 0-30-13.431-30-30v-34.5z" fill="#4380a0"/><path d="m368 440v34.5c0 16.569-13.431 30-30 30h30c16.569 0 30-13.431 30-30v-34.5z" fill="#3b7191"/><path d="m318 48h-124c-8.837 0-16-7.163-16-16v-24h156v24c0 8.837-7.163 16-16 16z" fill="#4380a0"/><path d="m305.465 238.673h-98.93c-11.341 0-20.535-9.194-20.535-20.535v-98.93c0-11.341 9.194-20.535 20.535-20.535h98.93c11.341 0 20.535 9.194 20.535 20.535v98.93c0 11.341-9.194 20.535-20.535 20.535z" fill="#63e7ff"/><g fill="#f75632"><path d="m305.465 91.173h-98.93c-15.459 0-28.035 12.576-28.035 28.035v98.93c0 15.459 12.576 28.035 28.035 28.035h98.93c15.459 0 28.035-12.576 28.035-28.035v-98.93c0-15.459-12.576-28.035-28.035-28.035zm13.035 126.965c0 7.188-5.848 13.035-13.035 13.035h-98.93c-7.188 0-13.035-5.848-13.035-13.035v-98.93c0-7.188 5.848-13.035 13.035-13.035h98.93c7.188 0 13.035 5.848 13.035 13.035z"/><path d="m241 121.173h-25c-4.143 0-7.5 3.357-7.5 7.5v24.997c0 4.143 3.357 7.5 7.5 7.5s7.5-3.357 7.5-7.5v-17.497h17.5c4.143 0 7.5-3.357 7.5-7.5s-3.357-7.5-7.5-7.5z"/><path d="m241 201.173h-17.5v-17.503c0-4.143-3.357-7.5-7.5-7.5s-7.5 3.357-7.5 7.5v25.003c0 4.143 3.357 7.5 7.5 7.5h25c4.143 0 7.5-3.357 7.5-7.5s-3.357-7.5-7.5-7.5z"/><path d="m296 176.17c-4.143 0-7.5 3.357-7.5 7.5v17.503h-17.5c-4.143 0-7.5 3.357-7.5 7.5s3.357 7.5 7.5 7.5h25c4.143 0 7.5-3.357 7.5-7.5v-25.003c0-4.143-3.357-7.5-7.5-7.5z"/><path d="m296 121.173h-25c-4.143 0-7.5 3.357-7.5 7.5s3.357 7.5 7.5 7.5h17.5v17.497c0 4.143 3.357 7.5 7.5 7.5s7.5-3.357 7.5-7.5v-24.997c0-4.143-3.357-7.5-7.5-7.5z"/></g><path d="m348.899 390h-185.798c-3.922 0-7.101-3.179-7.101-7.101v-89.799c0-3.922 3.179-7.101 7.101-7.101h185.799c3.922 0 7.101 3.179 7.101 7.101v89.799c-.001 3.922-3.18 7.101-7.102 7.101z" fill="#7be492"/><path d="m348.899 286h-30c3.922 0 7.101 3.179 7.101 7.101v89.799c0 3.921-3.179 7.101-7.101 7.101h30c3.922 0 7.101-3.179 7.101-7.101v-89.799c0-3.922-3.179-7.101-7.101-7.101z" fill="#45d987"/><path d="m368 0h-224c-20.678 0-37.5 16.822-37.5 37.5v437c0 20.678 16.822 37.5 37.5 37.5h224c20.678 0 37.5-16.822 37.5-37.5v-437c0-20.678-16.822-37.5-37.5-37.5zm22.5 474.5c0 12.406-10.094 22.5-22.5 22.5h-224c-12.406 0-22.5-10.094-22.5-22.5v-437c0-12.406 10.094-22.5 22.5-22.5h224c12.406 0 22.5 10.094 22.5 22.5z" fill="#2b6181"/><g fill="#f3f3f3"><path d="m263.838 312.867c-.026-.069-.054-.14-.082-.209-1.333-3.235-4.454-5.324-7.952-5.324h-.014c-3.504.005-6.624 2.104-7.948 5.349-.022.055-.044.11-.065.166l-18.232 47.871c-1.475 3.87.469 8.203 4.34 9.678.878.335 1.78.493 2.668.493 3.021 0 5.87-1.84 7.01-4.833l2.701-7.092h18.94l2.668 7.071c1.463 3.875 5.79 5.833 9.665 4.368 3.875-1.462 5.831-5.789 4.368-9.665zm-11.862 31.099 3.8-9.978 3.765 9.978z"/><path d="m317.925 308.672c-3.472-2.261-8.118-1.278-10.377 2.193l-9.106 13.988-9.221-14.12c-2.265-3.469-6.911-4.442-10.38-2.179-3.468 2.265-4.444 6.912-2.179 10.38l14.284 21.874-.055 22.562c-.01 4.143 3.34 7.509 7.481 7.519h.019c4.134 0 7.49-3.346 7.5-7.481l.055-22.587 14.172-21.771c2.26-3.473 1.278-8.118-2.193-10.378z"/><path d="m190.667 314.834v48.555c0 4.143 3.357 7.5 7.5 7.5s7.5-3.357 7.5-7.5v-13.63c2.29-.011 4.587-.02 6.02-.02 11.839 0 21.471-9.512 21.471-21.202s-9.633-21.203-21.471-21.203c-4.507 0-9.013 0-13.52 0-.357-.028-3.595-.231-5.834 2.333-1.875 2.147-1.706 4.697-1.666 5.167zm21.02 19.904c-1.422 0-3.691.009-5.966.02-.011-2.37-.02-4.753-.02-6.222 0-1.258-.006-3.712-.012-6.202h5.997c3.508 0 6.471 2.84 6.471 6.202s-2.963 6.202-6.47 6.202z"/></g><path d="m276 464h-40c-4.142 0-7.5 3.357-7.5 7.5s3.358 7.5 7.5 7.5h40c4.142 0 7.5-3.357 7.5-7.5s-3.358-7.5-7.5-7.5z" fill="#ffd54f"/></g></svg>