<?xml version="1.0" encoding="utf-8"?>
<!-- Generator: Adobe Illustrator 23.1.1, SVG Export Plug-In . SVG Version: 6.00 Build 0)  -->
<svg version="1.1" id="Layer_1" xmlns="http://www.w3.org/2000/svg" xmlns:xlink="http://www.w3.org/1999/xlink" x="0px" y="0px"
	 viewBox="0 0 512 512" style="enable-background:new 0 0 512 512;" xml:space="preserve">
<style type="text/css">
	.st0{fill:#009345;}
	.st1{fill:#37B34A;stroke:#009345;stroke-width:17;stroke-miterlimit:10;}
	.st2{fill:#FFFFFF;}
</style>
<g>
	<path class="st0" d="M351.4,288.4c-26.1,0-47.2,21.1-47.2,47.2s21.1,47.2,47.2,47.2s47.2-21.1,47.2-47.2
		C398.6,309.6,377.5,288.4,351.4,288.4z M351.4,359.2c-13,0-23.6-10.6-23.6-23.6s10.6-23.6,23.6-23.6s23.6,10.6,23.6,23.6l0,0
		C375,348.6,364.4,359.2,351.4,359.2z"/>
	<path class="st0" d="M190.2,288.4c-26.1,0-47.2,21.1-47.2,47.2s21.1,47.2,47.2,47.2s47.2-21.1,47.2-47.2
		C237.3,309.6,216.2,288.4,190.2,288.4z M190.2,359.2c-13,0-23.6-10.6-23.6-23.6s10.6-23.6,23.6-23.6s23.6,10.6,23.6,23.6l0,0
		C213.7,348.6,203.2,359.2,190.2,359.2z"/>
	<path class="st0" d="M383.2,153.3c-2-4-6.1-6.5-10.5-6.5h-62.1v23.6h54.9l32.1,63.9l21.1-10.6L383.2,153.3z"/>
	<rect x="226.7" y="324.2" class="st0" width="89.3" height="23.6"/>
	<path class="st0" d="M154.8,324.2h-40.9c-6.5,0.2-11.6,5.6-11.5,12.1c0.2,6.3,5.2,11.3,11.5,11.5h40.9c6.5,0.2,11.9-5,12.1-11.5
		c0.2-6.5-5-11.9-11.5-12.1C155.2,324.2,155,324.2,154.8,324.2z"/>
	<path class="st0" d="M440.5,252.1l-23.2-29.9c-2.2-2.9-5.7-4.6-9.3-4.6h-85.7V135c0-6.5-5.3-11.8-11.8-11.8l0,0H113.9
		c-6.5,0.2-11.6,5.6-11.5,12.1c0.2,6.3,5.2,11.3,11.5,11.5h184.8v82.6c0,6.5,5.3,11.8,11.8,11.8l0,0h91.7l17.2,22.1v60.8h-32.6
		c-6.5-0.2-11.9,5-12.1,11.5s5,11.9,11.5,12.1c0.2,0,0.4,0,0.7,0h44.4c6.5,0,11.8-5.3,11.8-11.8l0,0v-76.7
		C443,256.7,442.2,254.1,440.5,252.1z"/>
	<path class="st0" d="M154,264.5H99.7c-6.5,0.2-11.6,5.6-11.5,12.1c0.2,6.3,5.2,11.3,11.5,11.5H154c6.5-0.2,11.6-5.6,11.5-12.1
		C165.3,269.7,160.2,264.6,154,264.5z"/>
	<path class="st0" d="M181.1,218H80.4c-6.5,0.2-11.6,5.6-11.5,12.1c0.2,6.3,5.2,11.3,11.5,11.5h100.7c6.5-0.2,11.6-5.6,11.5-12.1
		C192.4,223.2,187.4,218.2,181.1,218z"/>
	<path class="st0" d="M200.4,171.6H99.7c-6.5,0.2-11.6,5.6-11.5,12.1c0.2,6.3,5.2,11.3,11.5,11.5h100.7c6.5,0.2,11.9-5,12.1-11.5
		c0.2-6.5-5-11.9-11.5-12.1C200.8,171.6,200.6,171.6,200.4,171.6z"/>
	<circle class="st1" cx="192.9" cy="218" r="72.1"/>
	<path class="st2" d="M230.4,182.1c-3.4-2.8-8.4-2.3-11.2,1.1l-39.4,48.1L166,217.5c-3.1-3.1-8.2-3.1-11.3,0s-3.1,8.2,0,11.3l20,20
		c1.5,1.5,3.5,2.3,5.6,2.3h0.4c2.3-0.1,4.4-1.2,5.8-2.9l44.9-55l0,0C234.3,189.8,233.7,184.9,230.4,182.1z"/>
</g>
</svg>
