<?xml version="1.0" encoding="utf-8"?>
<!-- Generator: Adobe Illustrator 23.1.1, SVG Export Plug-In . SVG Version: 6.00 Build 0)  -->
<svg version="1.1" id="Layer_1" xmlns="http://www.w3.org/2000/svg" xmlns:xlink="http://www.w3.org/1999/xlink" x="0px" y="0px"
	 viewBox="0 0 512 512" style="enable-background:new 0 0 512 512;" xml:space="preserve">
<style type="text/css">
	.st0{fill:#37B34A;}
	.st1{fill:#009345;}
	.st2{fill:#FFFFFF;}
</style>
<title>shop secure</title>
<path class="st0" d="M337.2,160.6c-0.2-5.2-4.5-9.4-9.8-9.4h-50.8V100c0-5.4-4.3-9.8-9.7-9.8c0,0,0,0,0,0h-84.9
	c-5.4,0-9.8,4.4-9.8,9.8v51.2h-50.8c-5.2,0-9.5,4.1-9.8,9.4L102,395.9c-0.2,5.4,4,9.9,9.4,10.1c0.1,0,0.3,0,0.4,0h126.1
	c5.4,0,9.8-4.4,9.8-9.7s-4.4-9.8-9.7-9.8c0,0,0,0,0,0H121.9l9-215.8h41.4v25.5c0,5.4,4.4,9.8,9.8,9.8c5.4,0,9.8-4.4,9.8-9.8l0,0
	v-25.5h65.4v25.5c0,5.4,4.4,9.8,9.7,9.8s9.8-4.4,9.8-9.7c0,0,0,0,0,0v-25.5h41.4l1.2,28.6c0.2,5.2,4.5,9.4,9.8,9.4h0.4
	c5.4-0.2,9.6-4.8,9.4-10.2c0,0,0,0,0,0L337.2,160.6z M191.8,151.2v-41.5h65.4v41.5L191.8,151.2z"/>
<path class="st0" d="M381.5,266.1c-17.4,0-33.2-10-40.6-25.7h-21.1c-10.5,22.2-36.9,31.9-59.3,21.6v86c0,35.2,69.9,64,69.9,64
	s69.9-28.8,69.9-64v-86C394.4,264.7,388,266.1,381.5,266.1z"/>
<path class="st1" d="M330.4,421.8c-1.3,0-2.5-0.3-3.7-0.7c-12.8-5.5-25-12.1-36.6-19.7c-26.1-17.3-39.3-35.2-39.3-53.3v-86
	c0-5.4,4.4-9.8,9.8-9.8c1.4,0,2.8,0.3,4.1,0.9c4.6,2.1,9.6,3.2,14.6,3.2c13.6,0,26-7.9,31.8-20.2c1.6-3.4,5-5.6,8.8-5.6h21.1
	c3.8,0,7.2,2.2,8.8,5.6c5.8,12.3,18.2,20.1,31.8,20.1c5.1,0,10-1.1,14.6-3.2c4.9-2.3,10.7-0.1,13,4.8c0.6,1.3,0.9,2.7,0.9,4.1v86
	c0,18.1-13.2,36-39.3,53.3c-11.6,7.6-23.9,14.2-36.6,19.7C332.9,421.5,331.6,421.8,330.4,421.8z M270.3,275.2v72.9
	c0,21.8,41.1,44.8,60.1,53.3c19-8.5,60.1-31.6,60.1-53.3v-72.9c-21.8,3.6-43.6-6.3-55.3-25h-9.6
	C313.9,268.9,292.1,278.7,270.3,275.2L270.3,275.2z"/>
<path class="st2" d="M370.5,296.4c-3.4-2.8-8.4-2.3-11.2,1.1l-39.4,48.1L306,331.8c-3.1-3.1-8.2-3.1-11.3,0s-3.1,8.2,0,11.3l20,20
	c1.5,1.5,3.5,2.3,5.6,2.3h0.4c2.3-0.1,4.4-1.2,5.8-2.9l44.9-55l0,0C374.4,304.1,373.8,299.2,370.5,296.4z"/>
</svg>
